<svg width="48" height="48" viewBox="0 0 48 48" fill="none" xmlns="http://www.w3.org/2000/svg">
<path fill-rule="evenodd" clip-rule="evenodd" d="M24.5467 6.46996C21.1355 6.35636 17.6891 7.28703 14.7136 9.27316C11.3718 11.5062 9.03631 14.8038 7.96057 18.4902C7.66351 18.454 7.30777 18.47 6.88537 18.5894C5.30831 19.0369 4.12217 20.3292 3.58884 21.4673C2.89711 22.9505 2.60537 24.9121 2.91311 26.9372C3.21871 28.9558 4.07151 30.6198 5.13817 31.6529C6.20804 32.6865 7.41604 33.0225 8.61604 32.7702C10.4027 32.3889 11.2886 32.1036 11.0384 30.439L9.82724 22.3702C10.0715 18.0033 12.3323 13.8924 16.1136 11.3644C21.175 7.98356 27.8107 8.20009 32.6384 11.9062C35.9968 14.4812 37.9467 18.3393 38.1718 22.3894L37.3248 28.0337C35.4358 33.2033 30.7526 36.7841 25.3334 37.2924H21.7248C20.7936 37.2924 20.0438 38.0422 20.0438 38.9724V39.8588C20.0438 40.7894 20.7936 41.5393 21.7248 41.5393H26.2747C27.2054 41.5393 27.952 40.7894 27.952 39.8588V39.3953C32.0384 38.398 35.6054 35.8865 37.928 32.3841L39.3856 32.7708C40.5718 33.0785 41.7942 32.6865 42.8635 31.6534C43.9302 30.6198 44.7824 28.9564 45.0886 26.9377C45.3974 24.9126 45.0971 22.9542 44.4134 21.4678C43.727 19.9814 42.7046 19.0374 41.5243 18.6988C41.0299 18.5564 40.4934 18.5041 40.0331 18.4902C39.0603 15.1569 37.0576 12.1254 34.1712 9.91209C31.3334 7.73449 27.9579 6.58196 24.5467 6.46996Z" fill="#41D8D8"/>
<path fill-rule="evenodd" clip-rule="evenodd" d="M29.8719 20.9863C31.0746 20.9863 32.0495 21.9612 32.0521 23.1671C32.0495 24.3697 31.0746 25.3473 29.8719 25.3473C28.666 25.3473 27.6884 24.3697 27.6884 23.1671C27.6884 21.9617 28.6666 20.9863 29.8719 20.9863ZM23.9999 20.9863C25.2052 20.9863 26.1801 21.9612 26.1801 23.1671C26.1801 24.3697 25.2052 25.3473 23.9999 25.3473C22.7935 25.3473 21.8185 24.3697 21.8185 23.1671C21.8185 21.9617 22.7935 20.9863 23.9999 20.9863ZM18.13 20.9863C19.3327 20.9863 20.3103 21.9612 20.3103 23.1671C20.3103 24.3697 19.3327 25.3473 18.13 25.3473C16.9247 25.3473 15.9492 24.3697 15.9492 23.1671C15.9492 21.9617 16.9247 20.9863 18.13 20.9863ZM23.9999 11.6199C17.6052 11.6199 12.4521 16.6033 12.4521 23.1671C12.4521 26.3196 13.6441 29.1057 15.586 31.15L14.8969 34.2391C14.6697 35.2556 15.3748 35.9393 16.2884 35.4305L19.3049 33.7479C20.7385 34.3703 22.3241 34.7143 23.9999 34.7143C30.3967 34.7143 35.5466 29.734 35.5466 23.1671C35.5466 16.6033 30.3967 11.6199 23.9999 11.6199Z" fill="#41D8D8"/>
</svg>
